<svg xmlns="http://www.w3.org/2000/svg" xmlns:xlink="http://www.w3.org/1999/xlink" width="500" zoomAndPan="magnify" viewBox="0 0 375 374.999991" height="500" preserveAspectRatio="xMidYMid meet" version="1.0"><defs><clipPath id="4d5dd43333"><path d="M 132.011719 138 L 243 138 L 243 237 L 132.011719 237 Z M 132.011719 138 " clip-rule="nonzero"/></clipPath></defs><g clip-path="url(#4d5dd43333)"><path fill="#eb3349" d="M 219 200.328125 L 221.449219 202.90625 C 220.125 204.230469 218.773438 205.554688 217.472656 206.882812 C 215.789062 208.566406 214.078125 210.25 212.394531 211.957031 L 202.371094 221.980469 C 198.085938 226.265625 193.773438 230.574219 189.488281 234.859375 C 189.363281 234.984375 189.234375 235.140625 189.082031 235.292969 C 189.003906 235.394531 188.902344 235.496094 188.800781 235.597656 L 187.550781 237 L 185.792969 235.265625 C 185.484375 234.984375 185.230469 234.707031 184.949219 234.449219 L 164.542969 214.023438 C 163.984375 213.460938 163.421875 212.902344 162.859375 212.339844 C 162.273438 211.753906 161.6875 211.167969 161.101562 210.582031 C 160.667969 210.148438 160.207031 209.6875 159.773438 209.253906 L 162.222656 206.679688 C 162.679688 207.136719 163.140625 207.597656 163.625 208.082031 C 164.210938 208.667969 164.796875 209.253906 165.386719 209.839844 C 165.945312 210.402344 166.507812 210.964844 167.070312 211.523438 L 187.421875 231.902344 C 191.554688 227.769531 195.6875 223.613281 199.847656 219.480469 L 209.871094 209.457031 C 211.554688 207.773438 213.261719 206.066406 214.945312 204.382812 C 216.296875 203.03125 217.648438 201.679688 219 200.328125 Z M 186.226562 190.894531 L 180.078125 190.894531 L 180.078125 197.039062 L 186.226562 197.039062 Z M 194.898438 190.894531 L 188.75 190.894531 L 188.75 197.039062 L 194.898438 197.039062 Z M 186.226562 199.769531 L 180.078125 199.769531 L 180.078125 205.886719 L 186.226562 205.886719 Z M 194.898438 199.769531 L 188.75 199.769531 L 188.75 205.886719 L 194.898438 205.886719 Z M 187.5 167.097656 L 232.46875 214.226562 L 229.894531 216.675781 L 187.5 172.25 L 145.132812 216.648438 L 142.554688 214.203125 L 153.421875 202.828125 C 150.820312 200.226562 147.019531 196.476562 146.203125 195.636719 C 143.90625 193.316406 141.84375 191.121094 139.902344 188.953125 C 137.863281 186.660156 136.179688 184.132812 134.902344 181.429688 C 133.398438 178.21875 132.53125 174.800781 132.378906 171.28125 C 132.074219 165.363281 133.347656 159.804688 136.152344 154.703125 C 138.195312 150.980469 140.976562 147.769531 144.394531 145.140625 C 147.964844 142.414062 151.941406 140.527344 156.226562 139.582031 C 163.394531 138 170.308594 138.816406 176.8125 142.03125 C 180.742188 143.96875 184.132812 146.671875 186.914062 150.089844 L 187.578125 150.777344 C 187.703125 150.597656 187.832031 150.445312 187.984375 150.269531 C 190.460938 147.183594 193.496094 144.632812 197.015625 142.667969 C 200.253906 140.855469 203.75 139.660156 207.34375 139.148438 C 214.15625 138.179688 220.632812 139.328125 226.578125 142.566406 C 228.566406 143.636719 230.429688 144.9375 232.113281 146.417969 C 236.398438 150.191406 239.433594 154.78125 241.140625 160.085938 C 242.546875 164.394531 242.953125 168.78125 242.390625 173.066406 C 241.933594 176.507812 240.785156 179.800781 238.898438 183.164062 C 236.984375 186.53125 234.5625 189.695312 231.425781 192.855469 C 230.019531 194.285156 228.59375 195.6875 227.191406 197.117188 L 224.714844 194.539062 C 224.714844 194.539062 224.714844 194.539062 224.742188 194.515625 L 216.171875 185.613281 L 193.597656 162.152344 L 187.882812 156.234375 L 187.855469 156.285156 L 184.667969 153.023438 C 183.316406 151.238281 181.785156 149.679688 180.078125 148.304688 C 178.574219 147.105469 176.941406 146.058594 175.207031 145.191406 C 171.355469 143.332031 167.347656 142.386719 163.191406 142.386719 C 161.152344 142.386719 159.085938 142.617188 156.96875 143.074219 C 153.21875 143.917969 149.699219 145.550781 146.535156 147.972656 C 143.527344 150.269531 141.078125 153.125 139.265625 156.414062 C 136.792969 160.902344 135.667969 165.847656 135.925781 171.050781 C 136.078125 174.113281 136.816406 177.070312 138.117188 179.875 C 139.242188 182.273438 140.71875 184.515625 142.554688 186.558594 C 144.46875 188.699219 146.484375 190.839844 148.730469 193.113281 C 149.519531 193.925781 153.292969 197.652344 155.871094 200.226562 Z M 190.050781 153.378906 L 227.265625 192.039062 C 227.828125 191.480469 228.363281 190.945312 228.925781 190.382812 C 231.832031 187.449219 234.078125 184.515625 235.835938 181.429688 C 237.519531 178.472656 238.515625 175.589844 238.898438 172.609375 C 239.382812 168.832031 239.023438 165.007812 237.800781 161.183594 C 236.296875 156.488281 233.59375 152.433594 229.816406 149.070312 C 228.335938 147.769531 226.707031 146.621094 224.945312 145.675781 C 219.664062 142.820312 213.925781 141.800781 207.878906 142.667969 C 204.691406 143.128906 201.632812 144.171875 198.75 145.777344 C 195.585938 147.511719 192.90625 149.78125 190.738281 152.484375 C 190.511719 152.792969 190.28125 153.074219 190.050781 153.378906 Z M 190.050781 153.378906 " fill-opacity="1" fill-rule="nonzero"/></g></svg>