<svg xmlns="http://www.w3.org/2000/svg" xmlns:xlink="http://www.w3.org/1999/xlink" width="500" zoomAndPan="magnify" viewBox="0 0 375 374.999991" height="500" preserveAspectRatio="xMidYMid meet" version="1.0"><defs><g/><clipPath id="6f52bdc501"><path d="M 132.011719 107 L 243 107 L 243 205.472656 L 132.011719 205.472656 Z M 132.011719 107 " clip-rule="nonzero"/></clipPath></defs><g clip-path="url(#6f52bdc501)"><path fill="#ffffff" d="M 219 168.800781 L 221.449219 171.375 C 220.125 172.703125 218.773438 174.027344 217.472656 175.355469 C 215.789062 177.035156 214.078125 178.71875 212.394531 180.429688 L 202.371094 190.449219 C 198.085938 194.734375 193.773438 199.046875 189.488281 203.328125 C 189.363281 203.457031 189.234375 203.609375 189.082031 203.761719 C 189.003906 203.867188 188.902344 203.96875 188.800781 204.070312 L 187.550781 205.472656 L 185.792969 203.738281 C 185.484375 203.457031 185.230469 203.175781 184.949219 202.921875 L 164.542969 182.496094 C 163.984375 181.933594 163.421875 181.371094 162.859375 180.8125 C 162.273438 180.226562 161.6875 179.636719 161.101562 179.050781 C 160.667969 178.617188 160.207031 178.160156 159.773438 177.726562 L 162.222656 175.148438 C 162.679688 175.609375 163.140625 176.066406 163.625 176.550781 C 164.210938 177.140625 164.796875 177.726562 165.386719 178.3125 C 165.945312 178.875 166.507812 179.433594 167.070312 179.996094 L 187.421875 200.371094 C 191.554688 196.238281 195.6875 192.082031 199.847656 187.953125 L 209.871094 177.929688 C 211.554688 176.246094 213.261719 174.539062 214.945312 172.855469 C 216.296875 171.503906 217.648438 170.152344 219 168.800781 Z M 186.226562 159.363281 L 180.078125 159.363281 L 180.078125 165.511719 L 186.226562 165.511719 Z M 194.898438 159.363281 L 188.75 159.363281 L 188.75 165.511719 L 194.898438 165.511719 Z M 186.226562 168.238281 L 180.078125 168.238281 L 180.078125 174.359375 L 186.226562 174.359375 Z M 194.898438 168.238281 L 188.75 168.238281 L 188.75 174.359375 L 194.898438 174.359375 Z M 187.5 135.570312 L 232.46875 182.699219 L 229.894531 185.148438 L 187.5 140.722656 L 145.132812 185.121094 L 142.554688 182.671875 L 153.421875 171.300781 C 150.820312 168.699219 147.019531 164.949219 146.203125 164.105469 C 143.90625 161.785156 141.84375 159.59375 139.902344 157.425781 C 137.863281 155.128906 136.179688 152.605469 134.902344 149.902344 C 133.398438 146.6875 132.53125 143.273438 132.378906 139.753906 C 132.074219 133.835938 133.347656 128.277344 136.152344 123.175781 C 138.195312 119.453125 140.976562 116.238281 144.394531 113.613281 C 147.964844 110.882812 151.941406 108.996094 156.226562 108.054688 C 163.394531 106.472656 170.308594 107.289062 176.8125 110.5 C 180.742188 112.441406 184.132812 115.144531 186.914062 118.558594 L 187.578125 119.25 C 187.703125 119.070312 187.832031 118.917969 187.984375 118.738281 C 190.460938 115.652344 193.496094 113.101562 197.015625 111.140625 C 200.253906 109.328125 203.75 108.128906 207.34375 107.621094 C 214.15625 106.652344 220.632812 107.796875 226.578125 111.035156 C 228.566406 112.109375 230.429688 113.410156 232.113281 114.886719 C 236.398438 118.664062 239.433594 123.253906 241.140625 128.558594 C 242.546875 132.867188 242.953125 137.253906 242.390625 141.539062 C 241.933594 144.980469 240.785156 148.269531 238.898438 151.636719 C 236.984375 155.003906 234.5625 158.164062 231.425781 161.328125 C 230.019531 162.753906 228.59375 164.160156 227.191406 165.585938 L 224.714844 163.011719 C 224.714844 163.011719 224.714844 163.011719 224.742188 162.984375 L 216.171875 154.085938 L 193.597656 130.621094 L 187.882812 124.707031 L 187.855469 124.757812 L 184.667969 121.492188 C 183.316406 119.707031 181.785156 118.152344 180.078125 116.773438 C 178.574219 115.578125 176.941406 114.53125 175.207031 113.664062 C 171.355469 111.800781 167.347656 110.859375 163.191406 110.859375 C 161.152344 110.859375 159.085938 111.089844 156.96875 111.546875 C 153.21875 112.386719 149.699219 114.019531 146.535156 116.445312 C 143.527344 118.738281 141.078125 121.59375 139.265625 124.882812 C 136.792969 129.375 135.667969 134.320312 135.925781 139.523438 C 136.078125 142.582031 136.816406 145.542969 138.117188 148.347656 C 139.242188 150.742188 140.71875 152.988281 142.554688 155.027344 C 144.46875 157.171875 146.484375 159.3125 148.730469 161.582031 C 149.519531 162.398438 153.292969 166.121094 155.871094 168.699219 Z M 190.050781 121.851562 L 227.265625 160.511719 C 227.828125 159.949219 228.363281 159.414062 228.925781 158.855469 C 231.832031 155.921875 234.078125 152.988281 235.835938 149.902344 C 237.519531 146.945312 238.515625 144.0625 238.898438 141.078125 C 239.382812 137.304688 239.023438 133.480469 237.800781 129.652344 C 236.296875 124.960938 233.59375 120.90625 229.816406 117.539062 C 228.335938 116.238281 226.707031 115.09375 224.945312 114.148438 C 219.664062 111.292969 213.925781 110.273438 207.878906 111.140625 C 204.691406 111.597656 201.632812 112.644531 198.75 114.25 C 195.585938 115.984375 192.90625 118.253906 190.738281 120.957031 C 190.511719 121.261719 190.28125 121.542969 190.050781 121.851562 Z M 190.050781 121.851562 " fill-opacity="1" fill-rule="nonzero"/></g><g fill="#ffffff" fill-opacity="1"><g transform="translate(107.699056, 243.9779)"><g><path d="M 9.65625 -21.15625 C 12.375 -21.15625 14.828125 -20.429688 17.015625 -18.984375 L 15.546875 -15.875 C 13.398438 -17.164062 11.347656 -17.8125 9.390625 -17.8125 C 8.328125 -17.8125 7.488281 -17.625 6.875 -17.25 C 6.269531 -16.875 5.96875 -16.332031 5.96875 -15.625 C 5.96875 -14.925781 6.25 -14.332031 6.8125 -13.84375 C 7.375 -13.351562 8.070312 -12.992188 8.90625 -12.765625 C 9.75 -12.535156 10.660156 -12.242188 11.640625 -11.890625 C 12.617188 -11.546875 13.523438 -11.175781 14.359375 -10.78125 C 15.203125 -10.394531 15.898438 -9.785156 16.453125 -8.953125 C 17.003906 -8.117188 17.28125 -7.113281 17.28125 -5.9375 C 17.28125 -4.101562 16.546875 -2.632812 15.078125 -1.53125 C 13.609375 -0.425781 11.703125 0.125 9.359375 0.125 C 7.753906 0.125 6.203125 -0.175781 4.703125 -0.78125 C 3.203125 -1.382812 1.894531 -2.191406 0.78125 -3.203125 L 2.3125 -6.265625 C 3.375 -5.285156 4.535156 -4.53125 5.796875 -4 C 7.066406 -3.46875 8.273438 -3.203125 9.421875 -3.203125 C 10.660156 -3.203125 11.625 -3.425781 12.3125 -3.875 C 13 -4.332031 13.34375 -4.960938 13.34375 -5.765625 C 13.34375 -6.484375 13.0625 -7.085938 12.5 -7.578125 C 11.945312 -8.066406 11.25 -8.425781 10.40625 -8.65625 C 9.570312 -8.882812 8.660156 -9.160156 7.671875 -9.484375 C 6.691406 -9.816406 5.78125 -10.164062 4.9375 -10.53125 C 4.101562 -10.90625 3.40625 -11.503906 2.84375 -12.328125 C 2.289062 -13.148438 2.015625 -14.140625 2.015625 -15.296875 C 2.015625 -17.078125 2.710938 -18.5 4.109375 -19.5625 C 5.503906 -20.625 7.351562 -21.15625 9.65625 -21.15625 Z M 9.65625 -21.15625 "/></g></g></g><g fill="#ffffff" fill-opacity="1"><g transform="translate(127.851792, 243.9779)"><g><path d="M 16.3125 -4.734375 L 5.734375 -4.734375 L 3.71875 0 L 0.03125 0 L 9.296875 -21 L 12.9375 -21 L 22.109375 0 L 18.328125 0 Z M 14.96875 -7.890625 L 11.015625 -17.21875 L 7.046875 -7.890625 Z M 14.96875 -7.890625 "/></g></g></g><g fill="#ffffff" fill-opacity="1"><g transform="translate(151.483176, 243.9779)"><g><path d="M 20.96875 0 L 17.484375 0 L 6.296875 -15.0625 L 6.296875 0 L 2.765625 0 L 2.765625 -21 L 6.234375 -21 L 17.484375 -5.90625 L 17.484375 -21 L 20.96875 -21 Z M 20.96875 0 "/></g></g></g><g fill="#ffffff" fill-opacity="1"><g transform="translate(176.733934, 243.9779)"><g><path d="M 6.296875 0 L 2.765625 0 L 2.765625 -21 L 6.296875 -21 Z M 6.296875 0 "/></g></g></g><g fill="#ffffff" fill-opacity="1"><g transform="translate(187.290398, 243.9779)"><g><path d="M 17.09375 -17.8125 L 10.4375 -17.8125 L 10.4375 0 L 6.90625 0 L 6.90625 -17.8125 L 0.265625 -17.8125 L 0.265625 -21 L 17.09375 -21 Z M 17.09375 -17.8125 "/></g></g></g><g fill="#ffffff" fill-opacity="1"><g transform="translate(206.153636, 243.9779)"><g><path d="M 17.09375 -17.8125 L 10.4375 -17.8125 L 10.4375 0 L 6.90625 0 L 6.90625 -17.8125 L 0.265625 -17.8125 L 0.265625 -21 L 17.09375 -21 Z M 17.09375 -17.8125 "/></g></g></g><g fill="#ffffff" fill-opacity="1"><g transform="translate(225.016875, 243.9779)"><g><path d="M 16.3125 -4.734375 L 5.734375 -4.734375 L 3.71875 0 L 0.03125 0 L 9.296875 -21 L 12.9375 -21 L 22.109375 0 L 18.328125 0 Z M 14.96875 -7.890625 L 11.015625 -17.21875 L 7.046875 -7.890625 Z M 14.96875 -7.890625 "/></g></g></g><g fill="#ffffff" fill-opacity="1"><g transform="translate(248.648259, 243.9779)"><g><path d="M 9.65625 -21.15625 C 12.375 -21.15625 14.828125 -20.429688 17.015625 -18.984375 L 15.546875 -15.875 C 13.398438 -17.164062 11.347656 -17.8125 9.390625 -17.8125 C 8.328125 -17.8125 7.488281 -17.625 6.875 -17.25 C 6.269531 -16.875 5.96875 -16.332031 5.96875 -15.625 C 5.96875 -14.925781 6.25 -14.332031 6.8125 -13.84375 C 7.375 -13.351562 8.070312 -12.992188 8.90625 -12.765625 C 9.75 -12.535156 10.660156 -12.242188 11.640625 -11.890625 C 12.617188 -11.546875 13.523438 -11.175781 14.359375 -10.78125 C 15.203125 -10.394531 15.898438 -9.785156 16.453125 -8.953125 C 17.003906 -8.117188 17.28125 -7.113281 17.28125 -5.9375 C 17.28125 -4.101562 16.546875 -2.632812 15.078125 -1.53125 C 13.609375 -0.425781 11.703125 0.125 9.359375 0.125 C 7.753906 0.125 6.203125 -0.175781 4.703125 -0.78125 C 3.203125 -1.382812 1.894531 -2.191406 0.78125 -3.203125 L 2.3125 -6.265625 C 3.375 -5.285156 4.535156 -4.53125 5.796875 -4 C 7.066406 -3.46875 8.273438 -3.203125 9.421875 -3.203125 C 10.660156 -3.203125 11.625 -3.425781 12.3125 -3.875 C 13 -4.332031 13.34375 -4.960938 13.34375 -5.765625 C 13.34375 -6.484375 13.0625 -7.085938 12.5 -7.578125 C 11.945312 -8.066406 11.25 -8.425781 10.40625 -8.65625 C 9.570312 -8.882812 8.660156 -9.160156 7.671875 -9.484375 C 6.691406 -9.816406 5.78125 -10.164062 4.9375 -10.53125 C 4.101562 -10.90625 3.40625 -11.503906 2.84375 -12.328125 C 2.289062 -13.148438 2.015625 -14.140625 2.015625 -15.296875 C 2.015625 -17.078125 2.710938 -18.5 4.109375 -19.5625 C 5.503906 -20.625 7.351562 -21.15625 9.65625 -21.15625 Z M 9.65625 -21.15625 "/></g></g></g></svg>